<?xml version="1.0" standalone="no"?>
<!DOCTYPE svg PUBLIC "-//W3C//DTD SVG 20010904//EN"
 "http://www.w3.org/TR/2001/REC-SVG-20010904/DTD/svg10.dtd">
<svg version="1.0" xmlns="http://www.w3.org/2000/svg"
 width="785.000000pt" height="784.016457pt" viewBox="0 0 785.000000 784.016457"
 preserveAspectRatio="xMidYMid meet">
<metadata>
Created by potrace 1.12, written by Peter Selinger 2001-2015
</metadata>
<g transform="translate(-2.000000,786.008229) scale(0.100000,-0.100000)"
fill="#ff8800" stroke="#cc6600" stroke-width="8" opacity="0.9">
<path d="M20 6685 l0 -1175 390 0 390 0 0 785 0 785 778 0 c427 0 783 4 790 8
9 7 12 91 10 388 l-3 379 -1177 3 -1178 2 0 -1175z"/>
<path d="M5517 7853 c-4 -3 -7 -176 -7 -384 0 -334 2 -378 16 -383 9 -3 364
-6 790 -6 l774 0 0 -785 0 -785 390 0 390 0 0 1175 0 1175 -1173 0 c-646 0
-1177 -3 -1180 -7z"/>
<path d="M3555 7068 c-3 -7 -6 -193 -7 -413 l-3 -400 -25 -7 c-14 -4 -52 -12
-85 -19 -113 -22 -250 -64 -381 -115 -100 -39 -323 -156 -412 -216 -244 -163
-490 -407 -653 -648 -60 -89 -68 -104 -157 -280 -85 -169 -146 -345 -182 -520
-7 -30 -15 -68 -19 -85 l-7 -30 -412 -3 -412 -2 0 -390 0 -390 412 -2 411 -3
8 -25 c4 -14 12 -52 19 -85 90 -435 310 -836 633 -1157 183 -182 348 -302 569
-416 206 -107 385 -171 583 -211 33 -7 71 -15 85 -19 l25 -7 5 -410 5 -410
390 0 390 0 5 410 5 410 25 6 c14 4 50 12 80 19 87 17 268 69 315 89 11 5 38
16 60 24 172 64 441 221 598 349 90 73 292 274 352 350 6 7 26 33 46 58 103
130 255 403 322 580 29 76 79 248 97 335 7 33 15 71 19 85 l8 25 409 5 409 5
0 385 0 385 -409 5 -409 5 -8 25 c-4 14 -12 52 -19 85 -7 33 -16 71 -20 85 -4
14 -13 45 -20 70 -40 141 -88 264 -154 394 -94 182 -129 238 -276 430 -47 61
-278 294 -323 325 -12 8 -24 17 -27 21 -3 3 -41 32 -85 65 -246 184 -586 336
-880 394 -33 7 -71 15 -85 19 l-25 7 -5 410 -5 410 -388 3 c-305 2 -389 0
-392 -10z m-3 -1918 l3 -305 390 0 390 0 3 300 c1 165 4 305 7 312 5 16 42 5
157 -46 26 -12 50 -21 53 -21 28 0 293 -154 325 -189 3 -4 28 -24 55 -46 194
-155 365 -386 480 -648 23 -54 55 -148 55 -164 0 -11 -57 -13 -310 -13 l-310
0 0 -390 0 -390 310 0 c273 0 310 -2 310 -15 0 -28 -69 -202 -117 -292 -72
-138 -205 -319 -307 -418 -85 -82 -236 -197 -321 -245 -70 -40 -214 -110 -225
-110 -6 0 -18 -4 -28 -9 -56 -29 -123 -50 -127 -38 -3 7 -6 147 -7 312 l-3
300 -390 0 -390 0 -3 -300 c-1 -165 -4 -306 -7 -312 -3 -10 -11 -10 -32 -2
-42 17 -62 25 -138 54 -129 49 -318 161 -420 250 -33 28 -73 62 -89 76 -46 39
-179 198 -233 279 -27 41 -71 115 -96 163 -47 90 -117 263 -117 292 0 13 37
15 310 15 l310 0 0 390 0 390 -310 0 c-250 0 -310 3 -310 13 0 25 32 120 61
184 16 35 29 65 29 67 0 3 24 47 54 99 161 284 424 534 704 667 35 16 65 30
68 30 2 0 26 9 52 21 103 46 144 59 154 50 4 -4 9 -144 10 -311z"/>
<path d="M20 1195 l0 -1175 1178 2 1177 3 3 379 c2 297 -1 381 -10 388 -7 4
-363 8 -790 8 l-778 0 0 785 0 785 -390 0 -390 0 0 -1175z"/>
<path d="M7090 1585 l0 -785 -777 0 c-428 0 -784 -4 -791 -8 -9 -7 -12 -91
-10 -388 l3 -379 1178 -3 1177 -2 0 1175 0 1175 -390 0 -390 0 0 -785z"/>
</g>
</svg>
